<svg width="960" height="720" viewBox="0 0 960 720" fill="none" xmlns="http://www.w3.org/2000/svg">
  <defs>
    <linearGradient id="bg" x1="120" y1="80" x2="860" y2="620" gradientUnits="userSpaceOnUse">
      <stop stop-color="#FEEBF2"/>
      <stop offset="1" stop-color="#FFF6DE"/>
    </linearGradient>
    <linearGradient id="cake" x1="280" y1="220" x2="700" y2="580" gradientUnits="userSpaceOnUse">
      <stop stop-color="#D980A0"/>
      <stop offset="1" stop-color="#C29853"/>
    </linearGradient>
  </defs>
  <rect x="0" y="0" width="960" height="720" rx="48" fill="url(#bg)"/>
  <circle cx="172" cy="138" r="66" fill="#FFFFFF" fill-opacity="0.65"/>
  <circle cx="840" cy="136" r="88" fill="#FFFFFF" fill-opacity="0.55"/>
  <circle cx="795" cy="562" r="70" fill="#FFE9EF"/>
  <g>
    <rect x="248" y="460" width="464" height="70" rx="28" fill="#FFE8EF"/>
    <rect x="300" y="386" width="360" height="88" rx="30" fill="url(#cake)"/>
    <rect x="334" y="304" width="292" height="92" rx="34" fill="#F8D9E3"/>
    <rect x="370" y="224" width="220" height="90" rx="38" fill="#FFFFFF"/>
  </g>
  <g fill="#C88B4A">
    <rect x="410" y="186" width="10" height="32" rx="5"/>
    <rect x="476" y="176" width="10" height="42" rx="5"/>
    <rect x="542" y="186" width="10" height="32" rx="5"/>
  </g>
  <text x="480" y="630" text-anchor="middle" fill="#7A5163" font-family="Arial, sans-serif" font-size="36" font-weight="700">Sweet Pan's Signature Cakes</text>
</svg>
